<svg width="215" height="132" viewBox="0 0 215 132" fill="none" xmlns="http://www.w3.org/2000/svg">
<path d="M23.4 106V77.1L0.1 29.2H16.2L26.3 51.6C27.7 54.7333 28.9667 57.9 30.1 61.1C31.2333 64.2333 32.4 67.3667 33.6 70.5H28.9C30.1667 67.3667 31.3333 64.2333 32.4 61.1C33.4667 57.9 34.7333 54.7333 36.2 51.6L46.2 29.2H62.2L38.5 77.2V106H23.4ZM94.1867 107.7C86.9867 107.7 81.0534 106 76.3867 102.6C71.7201 99.1333 68.2201 94.4 65.8867 88.4C63.6201 82.4 62.4867 75.5667 62.4867 67.9C62.4867 62.2333 63.1534 56.9667 64.4867 52.1C65.8201 47.1667 67.8201 42.8667 70.4867 39.2C73.1534 35.5333 76.4867 32.6667 80.4867 30.6C84.4867 28.5333 89.1534 27.5 94.4867 27.5C101.687 27.5 107.587 29.2333 112.187 32.7C116.853 36.1667 120.32 40.9333 122.587 47C124.853 53.0667 125.987 60 125.987 67.8C125.987 73.4667 125.32 78.7333 123.987 83.6C122.72 88.4 120.753 92.6 118.087 96.2C115.487 99.8 112.187 102.633 108.187 104.7C104.253 106.7 99.5867 107.7 94.1867 107.7ZM124.187 121C119.653 122.533 115.387 123.333 111.387 123.4C107.453 123.467 104.02 122.767 101.087 121.3C98.2201 119.9 96.0534 117.7 94.5867 114.7C93.1201 111.7 92.5867 107.9 92.9867 103.3H106.687C106.553 105.233 106.82 106.733 107.487 107.8C108.22 108.933 109.287 109.7 110.687 110.1C112.087 110.5 113.687 110.567 115.487 110.3C117.353 110.1 119.353 109.667 121.487 109L124.187 121ZM94.2867 94.6C98.0867 94.6 101.12 93.4 103.387 91C105.72 88.5333 107.42 85.2667 108.487 81.2C109.553 77.1333 110.087 72.7 110.087 67.9C110.087 62.7667 109.553 58.1667 108.487 54.1C107.487 49.9667 105.82 46.7 103.487 44.3C101.22 41.8333 98.2201 40.6 94.4867 40.6C90.6867 40.6 87.6201 41.8667 85.2867 44.4C82.9534 46.8667 81.2201 50.1667 80.0867 54.3C79.0201 58.3667 78.4867 62.8667 78.4867 67.8C78.4867 72.7333 79.0201 77.2333 80.0867 81.3C81.1534 85.3667 82.8201 88.6 85.0867 91C87.4201 93.4 90.4867 94.6 94.2867 94.6ZM131.311 106L140.411 29.2H157.811L169.711 76.1C170.178 77.9 170.578 79.9333 170.911 82.2C171.244 84.4 171.578 86.6 171.911 88.8C172.311 91 172.744 93 173.211 94.8H169.111C169.644 93 170.144 90.9667 170.611 88.7C171.144 86.3667 171.644 84.0667 172.111 81.8C172.578 79.4667 173.044 77.3667 173.511 75.5L185.511 29.2H202.311L211.211 106H196.411L192.711 61.8C192.444 58.8 192.211 55.6 192.011 52.2C191.878 48.7333 191.678 45.5333 191.411 42.6H193.711C192.844 45.6 192.044 48.8333 191.311 52.3C190.578 55.7667 189.778 59.0667 188.911 62.2L177.511 103.2L163.511 103.6L152.711 61.6C151.911 58.6 151.178 55.4333 150.511 52.1C149.844 48.7 149.144 45.5333 148.411 42.6H150.911C150.644 45.6 150.344 48.8 150.011 52.2C149.678 55.6 149.378 58.8667 149.111 62L145.111 106H131.311Z" fill="url(#paint0_linear_156_46)"/>
<defs>
<linearGradient id="paint0_linear_156_46" x1="0" y1="132" x2="215" y2="132" gradientUnits="userSpaceOnUse">
<stop stop-color="#7B00FF"/>
<stop offset="1" stop-color="#F8AE01"/>
</linearGradient>
</defs>
</svg>
